<?xml version="1.0" standalone="no"?><!DOCTYPE svg PUBLIC "-//W3C//DTD SVG 1.1//EN" "http://www.w3.org/Graphics/SVG/1.1/DTD/svg11.dtd"><svg t="1700207542806" class="icon" viewBox="0 0 1024 1024" version="1.1" xmlns="http://www.w3.org/2000/svg" p-id="13712" xmlns:xlink="http://www.w3.org/1999/xlink" width="200" height="200"><path d="M512 126.848L161.6 704.32c-2.88 3.84-5.408 7.68-7.584 11.584-6.688 11.904-10.016 24-10.016 36.128 0 84.96 163.744 160 368 160s368-75.04 368-160c0-16.544-6.208-32.96-18.624-49.024l-1.024-1.504L512 126.848z" fill="#FFFFFF" p-id="13713"></path><path d="M875.936 695.68l-25.76 19.008c-8.96-12.16-22.144-24.224-39.2-35.616l17.76-26.592c19.84 13.216 35.808 27.744 47.2 43.2z m-104.96-73.632l-12.384 29.504a477.12 477.12 0 0 0-56.736-19.424l8.544-30.848c21.664 6.016 41.952 12.96 60.544 20.768z m-122.784-34.656l-5.44 31.52a726.272 726.272 0 0 0-60.8-7.872l2.784-31.872c21.888 1.92 43.104 4.672 63.456 8.224zM512 576l8.544 0.032-0.32 32a821.856 821.856 0 0 0-61.632 1.728l-2.112-31.936A838.816 838.816 0 0 1 512 576z m-119.232 8.64l4.736 31.68c-20.736 3.072-40.768 7.04-59.84 11.744l-7.68-31.04a683.2 683.2 0 0 1 62.784-12.384z m-125.024 31.552l11.328 29.92c-19.776 7.488-37.6 15.84-53.12 24.896l-16.128-27.616a386.4 386.4 0 0 1 57.92-27.2z" fill="#8190A2" p-id="13714"></path><path d="M896 752c0 97.216-171.936 176-384 176S128 849.216 128 752c0-15.168 4.192-29.92 12.064-43.968 2.56-4.512 5.44-8.96 8.768-13.344L512 96l362.016 597.184c14.24 18.4 21.984 38.176 21.984 58.816zM512 157.696L174.4 713.92a88.224 88.224 0 0 0-6.4 9.824c-5.408 9.6-8 18.976-8 28.288C160 824.704 315.52 896 512 896s352-71.296 352-144c0-12.8-4.928-25.888-15.296-39.232l-2.048-3.008L512 157.696z" fill="#5D6D7E" p-id="13715"></path></svg>