<?xml version="1.0" standalone="no"?><!DOCTYPE svg PUBLIC "-//W3C//DTD SVG 1.1//EN" "http://www.w3.org/Graphics/SVG/1.1/DTD/svg11.dtd"><svg t="1700207559083" class="icon" viewBox="0 0 1024 1024" version="1.1" xmlns="http://www.w3.org/2000/svg" p-id="26652" xmlns:xlink="http://www.w3.org/1999/xlink" width="200" height="200"><path d="M128 320l224-224h512v608l-224.064 224.384-0.064-0.384H128V320z" fill="#FFFFFF" p-id="26653"></path><path d="M350.4 730.432l-131.904 131.872-22.624-22.624 131.904-131.872 22.624 22.624z m2.784-603.968h32v96h-32v-96z m0 192h32v96h-32v-96z m0 192h32v96h-32v-96z m30.528 193.472v-32h96v32h-96z m192 0v-32h96v32h-96z m192 0v-32h66.944v32H767.68z" fill="#8190A2" p-id="26654"></path><path d="M173.248 320h444.128l192-192H365.248l-192 192zM640 883.04l192-192.288V150.624l-192 192v540.416zM352 96h512v608l-224.064 224.384-0.064-0.384H128V320l224-224z m-192 256v544h448V352H160z" fill="#5D6D7E" p-id="26655"></path></svg>