<?xml version="1.0" standalone="no"?><!DOCTYPE svg PUBLIC "-//W3C//DTD SVG 1.1//EN" "http://www.w3.org/Graphics/SVG/1.1/DTD/svg11.dtd"><svg t="1700207612763" class="icon" viewBox="0 0 1024 1024" version="1.1" xmlns="http://www.w3.org/2000/svg" p-id="26881" xmlns:xlink="http://www.w3.org/1999/xlink" width="200" height="200"><path d="M161.44 288A90.048 90.048 0 0 1 160 272C160 174.784 317.6 96 512 96s352 78.784 352 176c0 5.408-0.48 10.72-1.44 16H864v465.504C862.4 850.016 705.408 928 512 928S161.6 850.016 160 753.504V288h1.44z" fill="#FFFFFF" p-id="26882"></path><path d="M837.056 660.8c-27.776-27.264-67.904-50.432-116.672-67.68l-10.688 30.176c44.672 15.808 80.8 36.64 104.96 60.352l22.4-22.816z m-244.608-96.288a710.72 710.72 0 0 0-130.368-2.784l2.24 31.904a689.792 689.792 0 0 1 124.512 2.688l3.616-31.808z m-260.16 19.456c-48 13.824-89.504 33.056-121.152 56.384l18.976 25.76c28.384-20.896 66.432-38.56 111.04-51.392l-8.864-30.752z" fill="#8190A2" p-id="26883"></path><path d="M512 80c202.112 0 368 82.944 368 192v481.76C878.176 862.016 712.896 944 512 944c-200.928 0-366.176-81.984-368-190.496V272c0-109.056 165.888-192 368-192z m-336 224v449.216C177.408 838.112 326.336 912 512 912s334.592-73.888 336-158.496V304h-4.576l3.392-18.848c0.8-4.352 1.184-8.736 1.184-13.152 0-85.344-149.312-160-336-160S176 186.656 176 272c0 4.416 0.384 8.8 1.184 13.152l3.392 18.848H176z" fill="#5D6D7E" p-id="26884"></path><path d="M512 464c202.112 0 368-82.944 368-192s-165.888-192-368-192-368 82.944-368 192 165.888 192 368 192z m0-32c-186.688 0-336-74.656-336-160s149.312-160 336-160 336 74.656 336 160-149.312 160-336 160z" fill="#5D6D7E" p-id="26885"></path></svg>