<?xml version="1.0" standalone="no"?><!DOCTYPE svg PUBLIC "-//W3C//DTD SVG 1.1//EN" "http://www.w3.org/Graphics/SVG/1.1/DTD/svg11.dtd"><svg t="1700207622179" class="icon" viewBox="0 0 1024 1024" version="1.1" xmlns="http://www.w3.org/2000/svg" p-id="27097" xmlns:xlink="http://www.w3.org/1999/xlink" width="200" height="200"><path d="M512 512m-416 0a416 416 0 1 0 832 0 416 416 0 1 0-832 0Z" fill="#FFFFFF" p-id="27098"></path><path d="M916.064 473.792l-26.976 17.216c-13.312-20.928-44.48-42.464-89.92-60.512l11.808-29.76c50.368 20.032 87.296 45.12 105.088 73.056zM688 366.976l-5.664 31.488a935.872 935.872 0 0 0-123.008-13.408l1.408-31.968c45.024 2.016 87.808 6.816 127.264 13.888zM432 354.944l2.4 31.904c-43.264 3.264-84.48 9.184-122.24 17.504l-6.88-31.232a905.472 905.472 0 0 1 126.72-18.176zM183.68 413.76l14.176 28.672c-43.2 21.312-66.56 44.96-69.504 65.088l-31.68-4.576c4.896-33.536 36.608-64.32 87.04-89.184z" fill="#8190A2" p-id="27099"></path><path d="M890.24 578.72C824.48 633.76 679.84 672 512 672s-312.48-38.24-378.24-93.28C165.344 758.976 322.688 896 512 896s346.656-137.024 378.24-317.28zM128 512c0 62.336 170.72 128 384 128s384-65.664 384-128c0-212.064-171.936-384-384-384S128 299.936 128 512z m384 416C282.24 928 96 741.76 96 512S282.24 96 512 96s416 186.24 416 416-186.24 416-416 416z" fill="#5D6D7E" p-id="27100"></path></svg>