<?xml version="1.0" standalone="no"?><!DOCTYPE svg PUBLIC "-//W3C//DTD SVG 1.1//EN" "http://www.w3.org/Graphics/SVG/1.1/DTD/svg11.dtd"><svg t="1699500447658" class="icon" viewBox="0 0 1024 1024" version="1.1" xmlns="http://www.w3.org/2000/svg" p-id="10541" xmlns:xlink="http://www.w3.org/1999/xlink" width="200" height="200"><path d="M775.47 642.19V445.66c0-19.66-10.49-37.82-27.51-47.65l-170.2-98.26a55.03 55.03 0 0 0-55.03 0l-170.2 98.26a55.027 55.027 0 0 0-27.51 47.65v196.53c0 19.66 10.49 37.82 27.51 47.65l170.2 98.26a55.03 55.03 0 0 0 55.03 0l170.2-98.26a55.027 55.027 0 0 0 27.51-47.65z" fill="#FF0000" opacity=".4" p-id="10542"></path><path d="M301.61 656.4c-5.7 0-11.42-0.9-16.99-2.73l-25.6-8.38c-13.82-4.52-25.04-14.15-31.61-27.12-6.57-12.96-7.69-27.71-3.17-41.53l15.01-45.83c1.11-3.38 0.44-7.03-1.79-9.79l-39.99-49.44c-2.47-3.06-6.4-4.45-10.25-3.65l-51.42 10.8a54.44 54.44 0 0 1-11.2 1.17c-25.19 0-47.86-17.63-53.24-43.24l-5.54-26.36c-6.17-29.37 12.7-58.28 42.07-64.45l47.18-9.91c3.47-0.73 6.3-3.14 7.58-6.46l22.82-59.36c1.41-3.67 0.65-7.77-1.97-10.69l-35.07-39.13c-9.7-10.82-14.61-24.78-13.81-39.3 0.8-14.51 7.2-27.85 18.02-37.55l20.06-17.98c10.82-9.7 24.77-14.6 39.3-13.81 14.51 0.8 27.85 7.2 37.55 18.02l32.18 35.91c2.37 2.65 5.88 3.9 9.38 3.34l62.82-9.92c3.88-0.61 7.05-3.31 8.28-7.05l16.35-49.93c4.52-13.81 14.15-25.04 27.12-31.61 12.96-6.57 27.71-7.69 41.53-3.17l25.6 8.38c13.82 4.52 25.04 14.15 31.61 27.12 6.57 12.96 7.69 27.71 3.17 41.53l-15.01 45.83c-1.11 3.38-0.44 7.03 1.79 9.79l39.99 49.44c2.47 3.06 6.4 4.45 10.25 3.64l51.42-10.8c14.23-2.99 28.76-0.26 40.93 7.69 12.17 7.95 20.52 20.16 23.51 34.38l5.54 26.36c6.17 29.37-12.7 58.28-42.07 64.44l-47.18 9.91c-3.47 0.73-6.3 3.14-7.58 6.46l-22.82 59.36a10.38 10.38 0 0 0 1.97 10.69l35.07 39.13c9.7 10.82 14.61 24.78 13.81 39.3-0.8 14.51-7.2 27.85-18.02 37.55l-20.07 17.99c-22.35 20.02-56.83 18.13-76.84-4.22l-32.18-35.91c-2.37-2.65-5.88-3.9-9.38-3.34l-62.82 9.92c-3.88 0.61-7.05 3.31-8.28 7.05l-16.35 49.93c-4.52 13.81-14.15 25.04-27.12 31.61-7.74 3.94-16.11 5.92-24.54 5.92zM189.46 423.69c16.22 0 31.72 7.25 42.2 20.21l39.99 49.44c11.67 14.42 15.18 33.55 9.4 51.18l-15.01 45.81c-1.17 3.57-0.12 6.52 0.61 7.95 0.73 1.44 2.48 4.02 6.05 5.19l25.6 8.38c3.57 1.17 6.52 0.12 7.96-0.61 1.44-0.73 4.02-2.48 5.19-6.05l16.35-49.93c6.39-19.5 22.95-33.61 43.22-36.81l62.81-9.92c18.3-2.9 36.63 3.62 49.02 17.44l32.18 35.91c3.83 4.28 10.44 4.64 14.72 0.8l20.06-17.98c2.8-2.51 3.36-5.58 3.45-7.2 0.09-1.61-0.14-4.72-2.64-7.51l-35.07-39.13c-13.69-15.28-17.63-36.67-10.28-55.83l22.82-59.37c6.66-17.31 21.46-29.92 39.6-33.73l47.18-9.91c5.62-1.18 9.23-6.71 8.05-12.34l-5.54-26.36c-0.77-3.67-3.15-5.7-4.5-6.58-1.35-0.88-4.16-2.25-7.84-1.47l-51.42 10.8c-20.1 4.22-40.59-3.08-53.5-19.04l-39.99-49.44c-11.67-14.42-15.18-33.55-9.4-51.18l15.01-45.81c1.17-3.57 0.12-6.52-0.61-7.95-0.73-1.44-2.48-4.02-6.05-5.19l-25.6-8.38c-3.57-1.17-6.52-0.12-7.96 0.61-1.44 0.73-4.02 2.48-5.19 6.05L404 165.68c-6.39 19.5-22.95 33.61-43.22 36.81l-62.81 9.92c-18.31 2.9-36.63-3.62-49.02-17.44l-32.18-35.91c-2.51-2.8-5.58-3.36-7.19-3.45-1.61-0.09-4.72 0.14-7.52 2.64L182 176.23c-2.8 2.51-3.36 5.58-3.45 7.2-0.09 1.61 0.14 4.72 2.64 7.52l35.07 39.13c13.69 15.28 17.63 36.67 10.28 55.84l-22.82 59.37c-6.66 17.31-21.46 29.92-39.6 33.73l-47.18 9.91c-5.62 1.18-9.23 6.72-8.05 12.34l5.54 26.36c1.18 5.62 6.71 9.24 12.34 8.05l51.42-10.8c3.75-0.8 7.53-1.19 11.27-1.19z" p-id="10543"></path><path d="M373.41 449.01c-53.52 0-97.06-43.54-97.06-97.06s43.54-97.06 97.06-97.06 97.06 43.54 97.06 97.06-43.54 97.06-97.06 97.06z m0-150.12c-29.26 0-53.06 23.8-53.06 53.06s23.8 53.06 53.06 53.06 53.06-23.8 53.06-53.06-23.8-53.06-53.06-53.06z" p-id="10544"></path><path d="M762.93 957.02c-6.93 0-13.8-1.7-20.09-5.05-10.1-5.38-17.5-14.38-20.82-25.33l-12.98-42.62L657 869.14l-32.92 35.22c-7.81 8.36-18.41 13.17-29.84 13.55-11.45 0.38-22.33-3.7-30.68-11.51l-22.36-20.9c-8.36-7.81-13.17-18.41-13.55-29.84-0.38-11.43 3.71-22.33 11.51-30.68l30.43-32.56-13.13-52.51-46.96-10.9c-23-5.34-37.37-28.4-32.03-51.4l6.92-29.81c2.59-11.14 9.36-20.61 19.07-26.66 9.71-6.05 21.19-7.95 32.33-5.37l43.42 10.08 38.9-37.62-14.04-46.12c-3.33-10.94-2.21-22.52 3.18-32.62 5.38-10.09 14.37-17.49 25.31-20.82l29.29-8.91c10.93-3.33 22.52-2.2 32.61 3.18 10.09 5.38 17.49 14.37 20.82 25.31l12.98 42.63 52.04 14.89 32.92-35.22c7.81-8.36 18.41-13.17 29.84-13.55 11.45-0.39 22.33 3.7 30.68 11.51l22.36 20.9c8.36 7.81 13.17 18.41 13.55 29.84 0.38 11.43-3.71 22.33-11.51 30.68l-30.43 32.56L880.84 695l46.96 10.9c11.14 2.59 20.61 9.36 26.66 19.07 6.05 9.71 7.95 21.19 5.37 32.33l-6.92 29.81c-2.59 11.14-9.36 20.61-19.07 26.66-9.71 6.05-21.19 7.95-32.33 5.37l-43.42-10.08-38.9 37.62 14.04 46.12c6.88 22.58-5.9 46.55-28.49 53.43l-29.28 8.91a42.824 42.824 0 0 1-12.53 1.88zM656.55 824.97c3.95 0 7.93 0.55 11.85 1.67l53.35 15.26c14.03 4.01 24.95 14.74 29.19 28.71l12.82 42.11 27.02-8.22-13.91-45.68c-4.71-15.44-0.42-32.01 11.19-43.25l39.9-38.58c10.5-10.15 25.25-14.23 39.46-10.92l42.88 9.95 6.39-27.51-46.51-10.79c-15.75-3.67-27.96-15.67-31.87-31.34l-13.46-53.81c-3.54-14.17 0.3-28.99 10.27-39.64l30.06-32.16-20.64-19.29-32.6 34.89c-11.04 11.8-27.54 16.37-43.06 11.93l-53.35-15.26c-14.03-4.01-24.95-14.74-29.19-28.71l-12.82-42.11-27.02 8.22 13.91 45.68c4.7 15.44 0.42 32.01-11.19 43.25l-39.9 38.58c-10.5 10.15-25.25 14.23-39.46 10.92l-42.88-9.95-6.39 27.51 46.51 10.79c15.75 3.67 27.96 15.67 31.87 31.34l13.46 53.81c3.54 14.17-0.3 28.99-10.27 39.64l-30.06 32.16 20.64 19.29 32.6-34.89c8.25-8.82 19.55-13.6 31.21-13.6z" p-id="10545"></path><path d="M726.83 794.95c-44.71 0-81.09-36.38-81.09-81.09s36.38-81.09 81.09-81.09 81.09 36.38 81.09 81.09-36.38 81.09-81.09 81.09z m0-118.18c-20.45 0-37.09 16.64-37.09 37.09 0 20.45 16.64 37.09 37.09 37.09s37.09-16.64 37.09-37.09c0-20.45-16.64-37.09-37.09-37.09z" p-id="10546"></path></svg>