<?xml version="1.0" standalone="no"?><!DOCTYPE svg PUBLIC "-//W3C//DTD SVG 1.1//EN" "http://www.w3.org/Graphics/SVG/1.1/DTD/svg11.dtd"><svg t="1699500441813" class="icon" viewBox="0 0 1024 1024" version="1.1" xmlns="http://www.w3.org/2000/svg" p-id="10363" xmlns:xlink="http://www.w3.org/1999/xlink" width="200" height="200"><path d="M512 512m-414 0a414 414 0 1 0 828 0 414 414 0 1 0-828 0Z" fill="#F0C48A" p-id="10364"></path><path d="M495.2 200.6L330.2 142 189.6 536l164.8 58.6z" fill="#D3E6F8" p-id="10365"></path><path d="M347.6 460.8l-158 75 158.6 334 206 25.8z" fill="#D3E6F8" p-id="10366"></path><path d="M374.6 650.8L476 855.8l64.8-4.6-125-232.6zM352.8 404l63-159 63.8-0.8-73 204.8zM630 853v-106.6h84v106.6" fill="#A4CFF2" p-id="10367"></path><path d="M679.2 755h35v97.8h-35zM672.6 303.4l173.8-38c12.6-2.8 21.6-14 21.8-27 0-15.8-13.4-28.4-29.2-27.6l-160.6 9.4c-15 0.8-30-3.8-41.8-13-32.2-25-32.2-73.8 0.2-98.6 12-9.2 26.8-13.8 41.8-12.8l160.4 9.8c15.8 1 29.2-11.6 29.2-27.4 0-13-9-24.2-21.6-27L673 13c-18.4-4-37.4 1.6-50.8 14.8l-49.6 49.6-120.6-0.2-0.2 162.2 120.6 0.2v-0.6l49.6 49.6c13 13.2 32.2 18.8 50.6 14.8z" fill="#7BABF1" p-id="10368"></path><path d="M354.4 606.4c-1.4 0-2.6-0.2-4-0.6l-165-58.6c-3-1-5.4-3.2-6.6-6-1.4-2.8-1.4-6-0.4-9l140.6-394c2.2-6 8.8-9.2 15-7.2l165 58.6c3 1 5.4 3.2 6.6 6 1.4 2.8 1.4 6 0.4 9l-140.6 394c-1.6 4.8-6 7.8-11 7.8z m-149.8-77.6l142.8 50.8 132.8-371.8-142.8-50.8-132.8 371.8z" fill="#4C4372" p-id="10369"></path><path d="M554.2 907.2h-1.4l-206-25.6c-4-0.4-7.4-3-9.2-6.6l-158.8-334c-1.4-2.8-1.6-6-0.4-9 1-3 3.2-5.4 6-6.6l158.2-75.2c5.8-2.8 12.8-0.2 15.6 5.6l206.6 434.8c1.8 3.8 1.4 8.4-1 11.8-2.2 3.2-5.8 4.8-9.6 4.8zM356 859l178.4 22.2L342 476.4l-137 65L356 859z" fill="#4C4372" p-id="10370"></path><path d="M196.266081 626.37535a138 138 0 1 0 195.158065-195.164878 138 138 0 1 0-195.158065 195.164878Z" fill="#E8677D" p-id="10371"></path><path d="M294 678.6c-17 0-34-3-50.4-8.8-37.8-13.4-68-40.8-85-76.8-17.2-36.2-19.2-76.8-5.8-114.6 13.4-37.8 40.8-68 76.8-85 36.2-17.2 76.8-19.2 114.6-5.8 37.8 13.4 68 40.8 85 76.8 17.2 36.2 19.2 76.8 5.8 114.6-13.4 37.8-40.8 68-76.8 85-20.4 9.8-42.4 14.6-64.2 14.6z m-0.2-276.4c-18.6 0-37 4.2-54.2 12.2-30.4 14.4-53.6 40-64.8 71.8-11.4 31.8-9.6 66.2 5 96.6 14.4 30.4 40 53.6 71.8 64.8 31.8 11.4 66.2 9.6 96.6-5 30.4-14.4 53.6-40 64.8-71.8 11.4-31.8 9.6-66.2-5-96.6-14.4-30.4-40-53.6-71.8-64.8-13.8-4.6-28.2-7.2-42.4-7.2z" fill="#4C4372" p-id="10372"></path><path d="M223.268258 542.261771a71.8 71.8 0 1 0 141.058328-26.898109 71.8 71.8 0 1 0-141.058328 26.898109Z" fill="#FD919E" p-id="10373"></path><path d="M294 612.2c-31.2 0-61.2-17.6-75.6-47.6-19.8-41.6-2-91.6 39.6-111.2 20.2-9.6 42.8-10.8 63.8-3.2 21 7.4 37.8 22.6 47.4 42.8 19.8 41.6 2 91.6-39.6 111.2-11.4 5.4-23.6 8-35.6 8z m-0.2-143.6c-8.6 0-17.4 1.8-25.6 5.8-30 14.2-42.6 50.2-28.4 80 14.2 30 50.2 42.8 80 28.4 30-14.2 42.6-50.2 28.4-80-10.4-21.4-32-34.2-54.4-34.2zM660.8 316.4c-17.6 0-34.4-7-47.2-19.6L568 251.2l-116.4-0.2c-6.4 0-11.8-5.2-11.8-11.8l0.2-162.2c0-3.2 1.2-6 3.4-8.2 2.2-2.2 5.2-3.4 8.2-3.4l115.8 0.2 46.2-46c16.2-16.2 39.2-22.8 61.6-18L849 40c17.8 4 30.8 20.2 30.8 38.4 0 10.8-4.6 21.2-12.4 28.6-7.8 7.4-18.6 11.2-29.4 10.6l-160.4-9.8c-12.2-0.8-24.4 3-34 10.4-12.6 9.6-19.8 24.2-19.8 40s7.2 30.4 19.6 40c9.6 7.6 21.8 11.2 34 10.6l160.6-9.4c10.8-0.6 21.4 3.2 29.2 10.6 7.8 7.4 12.4 17.8 12.4 28.6 0 18.4-13 34.4-31 38.4l-173.8 38c-4.4 0.8-9.4 1.4-14 1.4z m-88.4-89.2c3 0 6 1.2 8.4 3.4l49.6 49.6c10.6 10.6 25.4 15 40 11.8l173.8-38c7.2-1.6 12.4-8 12.4-15.4 0-4.4-1.8-8.6-5-11.6s-7.4-4.6-11.8-4.2l-160.6 9.4c-17.8 1-35.6-4.4-49.8-15.4-18.2-14.2-28.8-35.6-28.8-58.6 0-23.2 10.6-44.4 28.8-58.6 14.2-11 31.8-16.4 49.8-15.2l160.4 9.8c4.4 0.2 8.6-1.2 11.8-4.2 3.2-3 5-7.2 5-11.6 0-7.4-5.2-14-12.4-15.6l-173.8-38.4c-14.6-3.2-29.4 1.2-40 11.6l-49.6 49.6c-2.2 2.2-5.2 3.4-8.2 3.4l-109-0.2-0.2 138.6 105.2 0.2c1.4-0.2 2.6-0.4 4-0.4z" fill="#4C4372" p-id="10374"></path><path d="M380.513092 259.927535a104.8 104.8 0 1 0 70.2624-197.472416 104.8 104.8 0 1 0-70.2624 197.472416Z" fill="#E8677D" p-id="10375"></path><path d="M410.490338 202.100288a41.2 41.2 0 1 0 10.308909-81.752592 41.2 41.2 0 1 0-10.308909 81.752592Z" fill="#FD919E" p-id="10376"></path><path d="M415.8 277.8c-43.6 0-85.4-24.6-105.4-66.4-13.4-28-15-59.8-4.6-89 10.4-29.4 31.6-52.8 59.8-66.2 58-27.6 127.6-2.8 155.2 55.2 13.4 28 15 59.8 4.6 89-10.4 29.4-31.6 52.8-59.8 66.2-16 7.6-33 11.2-49.8 11.2z m-0.2-209.4c-13.4 0-27 2.8-39.8 9-22.4 10.6-39.4 29.4-47.8 52.8-8.4 23.4-7 48.6 3.6 71 22 46.4 77.6 66 123.8 44 22.4-10.6 39.4-29.4 47.8-52.8 8.4-23.4 7-48.6-3.6-71-15.8-33.4-49.2-53-84-53z" fill="#4C4372" p-id="10377"></path><path d="M415.8 214.2c-6 0-12-1-17.8-3-13.2-4.8-24-14.4-30-27.2-6-12.8-6.8-27-2-40.4 4.8-13.2 14.4-24 27.2-30 12.8-6 27-6.8 40.4-2 13.2 4.8 24 14.4 30 27.2 6 12.8 6.8 27 2 40.4-4.8 13.2-14.4 24-27.2 30-7.2 3.2-15 5-22.6 5z m-0.2-82.2c-4.2 0-8.6 1-12.6 2.8-7 3.4-12.4 9.2-15 16.6-2.6 7.4-2.2 15.4 1.2 22.4 3.4 7 9.2 12.4 16.6 15 7.4 2.6 15.4 2.2 22.4-1.2 7-3.4 12.4-9.2 15-16.6 2.6-7.4 2.2-15.4-1.2-22.4-4.8-10.4-15.4-16.6-26.4-16.6z" fill="#4C4372" p-id="10378"></path><path d="M843.8 1012.2H163.2v-75.4c0-46.2 37.4-83.6 83.6-83.6H760c46.2 0 83.6 37.4 83.6 83.6v75.4z" fill="#D3E6F8" p-id="10379"></path><path d="M305.4 791.6c-4.6 0-9-2.8-10.8-7.2-2.4-6 0.4-12.8 6.4-15.4l162-67c6-2.4 12.8 0.4 15.4 6.4 2.4 6-0.4 12.8-6.4 15.4l-162 67c-1.6 0.4-3 0.8-4.6 0.8zM714 864.6c-6.4 0-11.8-5.2-11.8-11.8V758h-60.6v94.8c0 6.4-5.2 11.8-11.8 11.8-6.4 0-11.8-5.2-11.8-11.8v-106.6c0-6.4 5.2-11.8 11.8-11.8H714c6.4 0 11.8 5.2 11.8 11.8v106.6c0 6.6-5.2 11.8-11.8 11.8z" fill="#4C4372" p-id="10380"></path><path d="M843.8 1010.8h-56.8v-145.4c31.4 0 56.8 25.4 56.8 56.8v88.6z" fill="#A4CFF2" p-id="10381"></path><path d="M843.8 1024H163.2c-6.4 0-11.8-5.2-11.8-11.8v-75.4c0-52.6 42.8-95.4 95.4-95.4H760c52.6 0 95.4 42.8 95.4 95.4v75.4c0.2 6.6-5 11.8-11.6 11.8zM175 1000.6h657.2v-63.6c0-39.6-32.2-72-72-72H246.8c-39.6 0-72 32.2-72 72v63.6z" fill="#4C4372" p-id="10382"></path></svg>